<svg width="153" height="153" viewBox="0 0 153 153" fill="none" xmlns="http://www.w3.org/2000/svg">
<path d="M87.2934 102.378C85.8732 103.8 84.1868 104.927 82.3305 105.697C80.4742 106.466 78.4844 106.862 76.4749 106.862C74.4654 106.862 72.4756 106.466 70.6193 105.697C68.763 104.927 67.0766 103.8 65.6564 102.378L35.0742 71.7955C33.6525 70.3754 32.5246 68.689 31.7551 66.8326C30.9856 64.9763 30.5895 62.9866 30.5895 60.9771C30.5895 58.9676 30.9856 56.9778 31.7551 55.1215C32.5246 53.2652 33.6525 51.5787 35.0742 50.1586C37.9392 47.3106 41.8147 45.712 45.8544 45.712C49.8941 45.712 53.7697 47.3106 56.6347 50.1586L76.5131 69.9606L127.203 19.2705C114.625 8.10854 98.7182 1.40481 81.9451 0.197394C65.1721 -1.01002 48.4688 3.34623 34.4218 12.5916C20.3749 21.837 9.76792 35.4556 4.24342 51.3388C-1.28107 67.2219 -1.41486 84.4834 3.86274 100.45C9.14035 116.417 19.5349 130.199 33.4369 139.661C47.3388 149.123 63.9725 153.737 80.7623 152.79C97.5521 151.843 113.561 145.386 126.311 134.421C139.06 123.455 147.839 108.592 151.287 92.1327C154.759 75.9246 152.797 59.0243 145.705 44.0421L87.2934 102.378Z" fill="white"/>
<path d="M75.513 99.2431C74.5068 99.2489 73.5093 99.056 72.5778 98.6756C71.6463 98.2951 70.7991 97.7345 70.0847 97.0259L39.5024 66.4436C38.0627 65.0039 37.2539 63.0513 37.2539 61.0153C37.2539 58.9792 38.0627 57.0266 39.5024 55.5869C40.9421 54.1472 42.8947 53.3384 44.9308 53.3384C46.9668 53.3384 48.9194 54.1472 50.3591 55.5869L75.513 80.8173L138.895 17.3591C140.334 15.9194 142.287 15.1106 144.323 15.1106C146.359 15.1106 148.312 15.9194 149.751 17.3591C151.191 18.7988 152 20.7514 152 22.7874C152 24.8235 151.191 26.7761 149.751 28.2158L80.9414 97.0259C80.227 97.7345 79.3797 98.2951 78.4482 98.6756C77.5167 99.056 76.5192 99.2489 75.513 99.2431Z" fill="#D4AF37"/>
</svg>
