<svg width="114" height="114" viewBox="0 0 114 114" fill="none" xmlns="http://www.w3.org/2000/svg">
<rect width="114" height="114" rx="57" fill="#EDFFFF"/>
<path d="M46.9424 82.2726L24.1041 59.556C23.9724 59.4251 23.8678 59.2693 23.7965 59.0978C23.7252 58.9263 23.6885 58.7424 23.6885 58.5567C23.6885 58.3709 23.7252 58.187 23.7965 58.0155C23.8678 57.844 23.9724 57.6883 24.1041 57.5573L29.8697 51.7853C30.4206 51.2343 31.3111 51.2343 31.862 51.7853L46.8975 66.731C47.4485 67.282 48.3453 67.2756 48.8963 66.7246L82.1191 33.1815C82.67 32.6242 83.5669 32.6242 84.1242 33.1751L89.8963 38.9471C90.4472 39.4981 90.4472 40.3885 89.9027 40.9395L53.7074 77.4615L53.7138 77.4679L48.9411 82.2662C48.3902 82.8171 47.4933 82.8171 46.9424 82.2726Z" fill="#40C0E7" stroke="#40C0E7" stroke-width="3.84375" stroke-miterlimit="10"/>
</svg>
